# xmcd
#
# Track frame offsets: 
#        150
#        17674
#        33633
#        49035
#        66703
#        85997
#        105343
#        124470
#        144487
#        158126
#        186446
#
# Disc length: 2880 seconds
#
# Revision: 0
# Processed by: cddbd v1.5.2PL0 Copyright (c) Steve Scherf et al.
# Submitted via: ExactAudioCopyFreeDBPlugin 1.0
#
DISCID=9d0b3e0b
DTITLE=Micke Bjorklof and Blue Strip - Twentyfive Live At Blues Baltica 
DTITLE=Cd_1
DYEAR=2018
DGENRE=Blues
TTITLE0=Jack The Black Hat
TTITLE1=Jungle Cat
TTITLE2=Last Train To Memphis
TTITLE3=After The Flood
TTITLE4=Ray Needs A Mojo Hand
TTITLE5=Hold Your Fire Baby
TTITLE6=Tell Me
TTITLE7=5 .10 .15 Hours
TTITLE8=36 Cuts
TTITLE9=Red Lightning Mama
TTITLE10=Honey Hush
EXTD=
EXTT0=
EXTT1=
EXTT2=
EXTT3=
EXTT4=
EXTT5=
EXTT6=
EXTT7=
EXTT8=
EXTT9=
EXTT10=
PLAYORDER=
